# xmcd CD database file
#
# Track frame offsets:
#	150
#	11580
#	24578
#	36530
#	50335
#	62487
#	76520
#	88066
#	102171
#	117681
#
# Disc length: 1813 seconds
#
# Revision: 1
# Processed by: cddbd v1.5.1PL2 Copyright (c) Steve Scherf et al.
# Submitted via: CDex 1.70beta2
#
DISCID=7807130a
DTITLE=Various Artist - That's Country - Legendary Ladies
DYEAR=2004
DGENRE=Country
TTITLE0=Sammi Smith - Help Me Make It Through The Night
TTITLE1=Lynn Anderson - Rose Garden
TTITLE2=Tammy Wynette - Till I Get It Right
TTITLE3=Barbara Fairchild - The Teddy Bear Song
TTITLE4=Jeanne Pruett - Satin Sheets
TTITLE5=Jeannie Seeley - Can I Sleep In Your Arms
TTITLE6=Donna Fargo - The Happiest Girl In The Whole USA
TTITLE7=Margo Smith - It Only Hurts For A Little While
TTITLE8=Lacy J. Dalton - Takin' It Easy
TTITLE9=Juice Newton - The Sweetest Thing
EXTD=YEAR: 2004
EXTT0=
EXTT1=
EXTT2=
EXTT3=
EXTT4=
EXTT5=
EXTT6=
EXTT7=
EXTT8=
EXTT9=
PLAYORDER=
